<svg width="70" height="70" viewBox="0 0 70 70" fill="none" xmlns="http://www.w3.org/2000/svg">
<circle cx="35" cy="35" r="35" fill="#FAEEEC"/>
<path fill-rule="evenodd" clip-rule="evenodd" d="M47 42.75C47 43.578 46.175 45 45.347 45H35V27H45.347C46.175 27 47 26.922 47 27.75V42.75ZM32 42.519L29 38.8275V21.8565L32 25.371V42.519ZM26 39H24.347C23.5175 39 23 37.578 23 36.75V21.75C23 20.922 23.5175 21 24.347 21H26V39ZM46.847 24H35.351C34.4735 24 33.6395 23.241 33.0695 22.5735L29.7455 18.8655C29.1755 18.198 28.3415 18 27.4625 18H22.847C21.1895 18 20 18.5925 20 20.25V38.25C20 39.9075 21.1895 42 22.847 42H25.5425C26.4455 42 27.3005 42.0315 27.8705 42.7335L30.9455 46.7055C31.5155 47.406 32.3705 48 33.2735 48H46.847C48.503 48 50 45.9075 50 44.25V26.25C50 24.5925 48.503 24 46.847 24V24Z" fill="#304659"/>
</svg>
