<svg width="70" height="70" viewBox="0 0 70 70" fill="none" xmlns="http://www.w3.org/2000/svg">
<circle cx="35" cy="35" r="35" fill="#FAEEEC"/>
<path fill-rule="evenodd" clip-rule="evenodd" d="M41.1247 27C41.1247 23.691 38.3778 21 35 21C31.6222 21 28.8753 23.691 28.8753 27C28.8753 30.309 31.6222 33 35 33C38.3778 33 41.1247 30.309 41.1247 27M46.9187 48H44.1871C43.3418 48 42.6559 47.328 42.6559 46.5C42.6559 45.672 43.3418 45 44.1871 45H44.8439C45.9035 45 46.6859 43.9545 46.2848 42.993C44.4305 38.547 40.0759 36 35 36C29.9242 36 25.5695 38.547 23.7153 42.993C23.3141 43.9545 24.0965 45 25.1561 45H25.813C26.6582 45 27.3442 45.672 27.3442 46.5C27.3442 47.328 26.6582 48 25.813 48H23.0814C21.1674 48 19.6607 46.2855 20.0665 44.454C21.1812 39.4155 24.6615 35.697 29.2459 34.0095C27.1543 32.361 25.813 29.835 25.813 27C25.813 21.6735 30.5351 17.4285 36.1009 18.063C40.134 18.522 43.4751 21.6705 44.0799 25.605C44.6005 28.9965 43.1841 32.094 40.7542 34.0095C45.3385 35.697 48.8189 39.4155 49.9335 44.454C50.3393 46.2855 48.8326 48 46.9187 48M39.7788 41.196C40.3775 41.7825 40.3775 42.732 39.7788 43.3185L35 48L31.7524 44.8185C31.1537 44.232 31.1537 43.2825 31.7524 42.696V42.696C32.3496 42.111 33.3188 42.111 33.9175 42.696L35 43.758L37.6138 41.196C38.2124 40.611 39.1817 40.611 39.7788 41.196" fill="#304659"/>
</svg>
