<svg width="96" height="23" viewBox="0 0 96 23" fill="none" xmlns="http://www.w3.org/2000/svg">
<path d="M0.512695 3.06152C0.170898 2.70996 0 2.29004 0 1.80176C0 1.30371 0.170898 0.878906 0.512695 0.527344C0.854492 0.175781 1.26953 0 1.75781 0C2.24609 0 2.66113 0.175781 3.00293 0.527344C3.34473 0.878906 3.51562 1.30371 3.51562 1.80176C3.51562 2.29004 3.34473 2.70996 3.00293 3.06152C2.66113 3.41309 2.24609 3.58887 1.75781 3.58887C1.26953 3.58887 0.854492 3.41309 0.512695 3.06152ZM0.292969 22.998V7.03125L3.07617 5.71289H3.22266V21.6797L0.439453 22.998H0.292969Z" fill="#F5F9FC"/>
<path d="M12.4512 22.4121C10.0098 22.4121 8.78906 21.3672 8.78906 19.2773V11.3525C8.78906 8.51074 9.25781 6.23047 10.1953 4.51172C11.8359 1.50391 14.1113 0 17.0215 0H20.9473V0.146484L19.8486 2.49023H17.0215C15.2051 2.49023 13.7695 3.54492 12.7148 5.6543C12.168 6.74805 11.8457 8.23242 11.748 10.1074H20.0684V10.2539L18.9697 12.5977H11.7188V19.2773C11.7188 19.707 11.9629 19.9219 12.4512 19.9219H18.2227C19.375 19.9219 20.0977 19.3506 20.3906 18.208H20.5371L22.7344 19.248C22.1484 21.3574 20.6445 22.4121 18.2227 22.4121H12.4512Z" fill="#F5F9FC"/>
<path d="M37.2803 5.71289V14.3555C37.2803 16.3867 36.9336 18.042 36.2402 19.3213C35.0098 21.5771 33.3008 22.7051 31.1133 22.7051C28.9258 22.7051 27.2168 21.5771 25.9863 19.3213C25.2832 18.0225 24.9316 16.3672 24.9316 14.3555C24.9316 12.4805 25.2832 10.8252 25.9863 9.38965C26.8359 7.60254 28.1006 6.37695 29.7803 5.71289H29.9268L31.0254 7.89551C29.8438 8.31543 28.9941 9.16016 28.4766 10.4297C28.0664 11.4453 27.8613 12.7539 27.8613 14.3555C27.8613 16.1621 28.0664 17.4707 28.4766 18.2812C29.1211 19.5703 30 20.2148 31.1133 20.2148C32.2266 20.2148 33.1055 19.5703 33.75 18.2812C34.1504 17.4707 34.3506 16.1621 34.3506 14.3555V7.03125L37.1338 5.71289H37.2803Z" fill="#F5F9FC"/>
<path d="M42.1289 22.998V14.3555C42.1289 12.3242 42.4805 10.6689 43.1836 9.38965C44.4043 7.13379 46.1084 6.00586 48.2959 6.00586C50.4834 6.00586 52.1875 7.13379 53.4082 9.38965C54.1211 10.6885 54.4775 12.3438 54.4775 14.3555C54.4775 16.2305 54.126 17.8857 53.4229 19.3213C52.5732 21.1084 51.3086 22.334 49.6289 22.998H49.4824L48.3838 20.8154C49.5654 20.3955 50.415 19.5508 50.9326 18.2812C51.3428 17.2656 51.5479 15.957 51.5479 14.3555C51.5479 12.5488 51.3428 11.2402 50.9326 10.4297C50.2881 9.14062 49.4092 8.49609 48.2959 8.49609C47.1826 8.49609 46.3037 9.14062 45.6592 10.4297C45.2588 11.2402 45.0586 12.5488 45.0586 14.3555V21.6797L42.2754 22.998H42.1289Z" fill="#F5F9FC"/>
<path d="M62.4023 10.4443C62.0117 11.2354 61.8164 12.5391 61.8164 14.3555C61.8164 16.1719 62.0166 17.4805 62.417 18.2812C63.0615 19.5703 63.9404 20.2148 65.0537 20.2148C66.167 20.2148 67.0459 19.5703 67.6904 18.2812C68.1006 17.4707 68.3057 16.1621 68.3057 14.3555C68.3057 12.5488 68.1006 11.2402 67.6904 10.4297C67.0557 9.14062 66.1768 8.49609 65.0537 8.49609C63.9307 8.49609 63.0469 9.14551 62.4023 10.4443ZM58.8867 14.3555C58.8867 12.3242 59.2383 10.6689 59.9414 9.38965C61.1621 7.13379 62.8662 6.00586 65.0537 6.00586C67.2412 6.00586 68.9453 7.13379 70.166 9.38965C70.8789 10.6885 71.2354 12.3438 71.2354 14.3555C71.2354 16.3965 70.8838 18.0518 70.1807 19.3213C68.9404 21.5771 67.2314 22.7051 65.0537 22.7051C62.9053 22.7051 61.2012 21.5771 59.9414 19.3213C59.2383 18.0615 58.8867 16.4062 58.8867 14.3555Z" fill="#F5F9FC"/>
<path d="M76.5967 3.06152C76.2549 2.70996 76.084 2.29004 76.084 1.80176C76.084 1.30371 76.2549 0.878906 76.5967 0.527344C76.9385 0.175781 77.3535 0 77.8418 0C78.3301 0 78.7451 0.175781 79.0869 0.527344C79.4287 0.878906 79.5996 1.30371 79.5996 1.80176C79.5996 2.29004 79.4287 2.70996 79.0869 3.06152C78.7451 3.41309 78.3301 3.58887 77.8418 3.58887C77.3535 3.58887 76.9385 3.41309 76.5967 3.06152ZM76.377 22.998V7.03125L79.1602 5.71289H79.3066V21.6797L76.5234 22.998H76.377Z" fill="#F5F9FC"/>
<path d="M92.6367 22.998V20.9473C91.7969 22.1094 90.7471 22.6953 89.4873 22.7051C87.6611 22.7051 86.2402 22.1533 85.2246 21.0498C84.209 19.9463 83.7012 18.6426 83.7012 17.1387C83.7012 15.5762 84.2529 14.248 85.3564 13.1543C86.4209 12.0996 87.7979 11.5723 89.4873 11.5723C90.6885 11.5723 91.7188 12.1094 92.5781 13.1836C92.4023 11.709 92.2217 10.791 92.0361 10.4297C91.3818 9.14062 90.5029 8.49609 89.3994 8.49609H85.9863V8.34961L87.0996 6.00586H89.3994C91.5869 6.00586 93.291 7.13379 94.5117 9.38965C95.2148 10.6787 95.5664 12.334 95.5664 14.3555V21.6797L92.7832 22.998H92.6367ZM86.543 17.1094C86.543 17.9883 86.8066 18.7256 87.334 19.3213C87.8711 19.917 88.5938 20.2148 89.502 20.2148C90.4004 20.2148 91.1523 19.9072 91.7578 19.292C92.3242 18.7158 92.6074 18.0078 92.6074 17.168C92.6074 16.2891 92.3047 15.5518 91.6992 14.9561C91.0938 14.3604 90.3662 14.0625 89.5166 14.0625C88.6084 14.0625 87.8809 14.3652 87.334 14.9707C86.8066 15.5664 86.543 16.2793 86.543 17.1094Z" fill="#F5F9FC"/>
</svg>
